<svg preserveAspectRatio="none" width="100%" height="100%" overflow="visible" style="display: block;" viewBox="0 0 31.523 11.0459" fill="none" xmlns="http://www.w3.org/2000/svg">
<g id="Frame 73">
<path id="Arrow 3" d="M6.0533 6.0533C6.34619 5.76041 6.34619 5.28553 6.0533 4.99264L1.28033 0.21967C0.987438 -0.0732234 0.512564 -0.0732235 0.219671 0.21967C-0.0732227 0.512563 -0.0732227 0.987437 0.219671 1.28033L4.46231 5.52297L0.21967 9.76561C-0.0732235 10.0585 -0.0732236 10.5334 0.21967 10.8263C0.512563 11.1192 0.987437 11.1192 1.28033 10.8263L6.0533 6.0533ZM4.52297 5.52297L4.52297 6.27297L5.52297 6.27297L5.52297 5.52297L5.52297 4.77297L4.52297 4.77297L4.52297 5.52297Z" fill="#FF9860"/>
<path id="Arrow 4" d="M15.0533 6.0533C15.3462 5.76041 15.3462 5.28553 15.0533 4.99264L10.2803 0.21967C9.98744 -0.0732234 9.51256 -0.0732235 9.21967 0.21967C8.92678 0.512563 8.92678 0.987437 9.21967 1.28033L13.4623 5.52297L9.21967 9.76561C8.92678 10.0585 8.92678 10.5334 9.21967 10.8263C9.51256 11.1192 9.98744 11.1192 10.2803 10.8263L15.0533 6.0533ZM13.523 5.52297L13.523 6.27297L14.523 6.27297L14.523 5.52297L14.523 4.77297L13.523 4.77297L13.523 5.52297Z" fill="#FF9860"/>
</g>
</svg>
